<svg xmlns="http://www.w3.org/2000/svg" version="1.1" xmlns:xlink="http://www.w3.org/1999/xlink" xmlns:svgjs="http://svgjs.com/svgjs" width="512" height="512" x="0" y="0" viewBox="0 0 24 24" style="enable-background:new 0 0 512 512" xml:space="preserve" class=""><g><g xmlns="http://www.w3.org/2000/svg" clip-rule="evenodd" fill="rgb(0,0,0)" fill-rule="evenodd"><path d="m7.20711 4.87868c.56261-.56261 1.32567-.87868 2.12132-.87868h3.67157c.5523 0 1 .44772 1 1s-.4477 1-1 1h-3.67157c-.26522 0-.51957.10536-.70711.29289l-.82843.82843c-.56261.56261-1.32567.87868-2.12132.87868h-1.67157c-.55228 0-1 .44772-1 1v10c0 .5523.44772 1 1 1h14c.5523 0 1-.4477 1-1v-7c0-.5523.4477-1 1-1s1 .4477 1 1v7c0 1.6569-1.3431 3-3 3h-14c-1.65685 0-3-1.3431-3-3v-10c0-1.65685 1.34315-3 3-3h1.67157c.26522 0 .51957-.10536.70711-.29289z" fill="#2d2f31" data-original="#000000" class=""></path><path d="m6 14c0-2.7614 2.23858-5 5-5 2.7614 0 5 2.2386 5 5s-2.2386 5-5 5c-2.76142 0-5-2.2386-5-5zm5-3c-1.65685 0-3 1.3431-3 3s1.34315 3 3 3c1.6569 0 3-1.3431 3-3s-1.3431-3-3-3z" fill="#2d2f31" data-original="#000000" class=""></path><path d="m16 5c0-.55228.4477-1 1-1h6c.5523 0 1 .44772 1 1s-.4477 1-1 1h-6c-.5523 0-1-.44772-1-1z" fill="#2d2f31" data-original="#000000" class=""></path><path d="m20 1c.5523 0 1 .44772 1 1v6c0 .55228-.4477 1-1 1s-1-.44772-1-1v-6c0-.55228.4477-1 1-1z" fill="#2d2f31" data-original="#000000" class=""></path></g></g></svg>