<?xml version="1.0" encoding="windows-1252"?>
<svg xmlns="http://www.w3.org/2000/svg" xmlns:xlink="http://www.w3.org/1999/xlink" version="1.1" viewBox="0 0 512 512" enable-background="new 0 0 512 512" width="512px" height="512px">
  <g>
    <path d="m285.7,178.1c-3.4,0-6.2,2.7-6.2,6.2s2.8,6.2 6.2,6.2c3.4,0 6.2-2.7 6.2-6.2s-2.8-6.2-6.2-6.2z" fill="#FFFFFF"/>
    <path d="m226.3,178.1c-3.4,0-6.2,2.7-6.2,6.2s2.8,6.2 6.2,6.2c3.4,0 6.2-2.7 6.2-6.2s-2.8-6.2-6.2-6.2z" fill="#FFFFFF"/>
    <path d="m374,0h-236c-76.2,0-138,61.8-138,138v236c0,76.2 61.8,138 138,138h236c76.2,0 138-61.8 138-138v-236c0-76.2-61.8-138-138-138zm-188,289.9c0,7.6-6.6,14.1-14.2,14.1h-0.6c-7.6,0-14.2-6.5-14.2-14.1v-60c0-7.6 6.6-13.9 14.2-13.9h0.6c7.5,0 13.2,6.3 14.2,13.9v60zm134,23.2c0,6.9-5.9,12.9-12.9,12.9h-13.1v32.1c0,7.6-6.6,13.9-14.2,13.9h-0.6c-7.6,0-14.2-6.3-14.2-13.9v-32.1h-19v32.1c0,7.6-5.7,13.9-13.3,13.9h-0.6c-7.6,0-14.1-6.3-14.1-13.9v-32.1h-13.2c-7,0-12.8-5.9-12.8-12.9v-95.1h128v95.1zm.1-100.1h-128.2c-0.1-2-0.2-2.65-0.2-3.95 0-20.6 13.1-38.625 32.5-48.125l-10.8-16.663c-0.7-1.1-0.4-2.531 0.7-3.231 1.1-0.7 2.5-0.416 3.2,0.684l11.1,17.192c8.4-3.5 17.7-5.404 27.6-5.404 9.9,0 19.2,1.998 27.6,5.398l11.1-17.201c0.7-1.1 2.2-1.4 3.2-0.7 1.1,0.7 1.4,2.2 0.7,3.2l-10.8,16.6c19.4,9.5 32.5,27.65 32.5,48.25 5.68434e-14,1.2-0.1,1.95-0.2,3.95zm33.9,77.2c0,7.622-6.178,13.8-13.8,13.8h-0.4c-7.622,0-13.8-6.178-13.8-13.8v-60.4c0-7.622 6.178-13.8 13.8-13.8h0.4c7.622,0 13.8,6.178 13.8,13.8v60.4z" fill="#FFFFFF"/>
  </g>
</svg>