<?xml version="1.0"?>
<svg xmlns="http://www.w3.org/2000/svg" height="512px" viewBox="0 -21 474.35428 474" width="512px"><path d="m237.175781 308.363281c33.816407.015625 64.570313-19.59375 78.820313-50.261719 14.25-30.667968 9.40625-66.816406-12.410156-92.652343l-122.410157 122.40625c15.648438 13.257812 35.492188 20.523437 56 20.507812zm0 0" fill="#FFFFFF"/><path d="m289.015625 151.734375c-34.582031-25.753906-82.820313-22.242187-113.308594 8.246094-30.484375 30.488281-33.996093 78.726562-8.246093 113.308593zm0 0" fill="#FFFFFF"/><path d="m404.277344 144.175781c-14.433594-12.304687-29.757813-23.527343-45.84375-33.578125l-40.671875 40.671875c36.933593 42.347657 34.761719 106.0625-4.96875 145.792969-39.734375 39.734375-103.449219 41.90625-145.792969 4.972656l-37.96875 37.96875c5.132812 2.851563 10.261719 5.515625 15.386719 7.984375 31.421875 15.101563 62.628906 22.75 92.757812 22.75 30.132813 0 61.339844-7.652343 92.757813-22.75 24.816406-11.921875 49.828125-28.5 74.34375-49.261719 41.542968-35.1875 67.085937-69.917968 68.152344-71.378906 2.566406-3.511718 2.566406-8.28125 0-11.796875-1.066407-1.460937-26.609376-36.1875-68.152344-71.375zm0 0" fill="#FFFFFF"/><path d="m130.265625 221.449219c-.019531-40.945313 23.359375-78.304688 60.195313-96.183594 36.839843-17.878906 80.652343-13.136719 112.8125 12.207031l37.210937-37.210937c-3.519531-1.875-7.035156-3.65625-10.546875-5.351563-31.417969-15.097656-62.625-22.75-92.757812-22.75-30.128907 0-61.335938 7.65625-92.757813 22.75-24.8125 11.921875-49.824219 28.5-74.339844 49.265625-41.550781 35.1875-67.089843 69.914063-68.15625 71.375-2.566406 3.511719-2.566406 8.28125 0 11.792969 1.066407 1.460938 26.605469 36.191406 68.148438 71.378906 13.066406 11.125 26.851562 21.375 41.265625 30.6875l41.863281-41.867187c-14.878906-18.8125-22.960937-42.105469-22.9375-66.09375zm0 0" fill="#FFFFFF"/><path d="m451.78125 17.25c3.90625-3.90625 3.90625-10.238281 0-14.144531-3.902344-3.90625-10.238281-3.90625-14.140625 0l-97.160156 97.15625c5.980469 3.183593 11.964843 6.628906 17.953125 10.335937zm0 0" fill="#FFFFFF"/><path d="m25.09375 415.652344c-3.90625 3.902344-3.90625 10.238281 0 14.140625 3.90625 3.90625 10.238281 3.90625 14.144531 0l89.792969-89.789063c-5.898438-3.28125-11.796875-6.8125-17.691406-10.59375zm0 0" fill="#FFFFFF"/></svg>
