<svg xmlns="http://www.w3.org/2000/svg" version="1.1" xmlns:xlink="http://www.w3.org/1999/xlink" xmlns:svgjs="http://svgjs.com/svgjs" width="512" height="512" x="0" y="0" viewBox="0 0 460.702 460.702" style="enable-background:new 0 0 512 512" xml:space="preserve" class=""><g><g xmlns="http://www.w3.org/2000/svg"><path d="m316.608 121.805c-8.937-9.037-23.499-9.151-32.576-.254l-170.268 168.282-74.017-76.626c-8.828-9.201-23.443-9.503-32.643-.675-9.201 8.828-9.503 23.443-.675 32.643.04.041.079.082.119.123l90.248 93.526c4.319 4.406 10.222 6.901 16.392 6.926h.254c6.053-.019 11.857-2.415 16.161-6.672l186.797-184.697c9.025-8.95 9.117-23.511.208-32.576z" fill="#f1776c" data-original="#000000" class=""></path><path d="m235.318 338.824c4.308 4.395 10.192 6.888 16.346 6.926h.254c6.053-.019 11.857-2.415 16.161-6.672l186.798-184.697c8.467-9.534 7.602-24.126-1.931-32.593-8.643-7.676-21.63-7.777-30.391-.237l-170.199 168.282-6.072-6.303c-8.827-9.201-23.442-9.504-32.643-.676-9.201 8.827-9.504 23.442-.676 32.643.04.042.08.083.12.124z" fill="#f1776c" data-original="#000000" class=""></path></g></g></svg>