<svg height="512pt" viewBox="0 0 512 512.00038" width="512pt" xmlns="http://www.w3.org/2000/svg" xmlns:xlink="http://www.w3.org/1999/xlink"><linearGradient id="a" gradientUnits="userSpaceOnUse" x1="116.4724094584" x2="485.3952722936" y1="-12.8049247178" y2="697.9363124434"><stop offset="0" stop-color="#fffcf8"/><stop offset=".1875" stop-color="#faf8f6"/><stop offset=".4041" stop-color="#eceef2"/><stop offset=".6353" stop-color="#d5dcea"/><stop offset=".875" stop-color="#b5c4df"/><stop offset="1" stop-color="#a1b5d8"/></linearGradient><linearGradient id="b"><stop offset="0" stop-color="#a1b5d8" stop-opacity="0"/><stop offset=".3094" stop-color="#90a2bd" stop-opacity=".309804"/><stop offset=".7554" stop-color="#7c8b9c" stop-opacity=".756863"/><stop offset="1" stop-color="#748290"/></linearGradient><linearGradient id="c" gradientUnits="userSpaceOnUse" x1="196.3726539866" x2="-671.0159540134" xlink:href="#b" y1="222.4596783332" y2="-265.4464136668"/><linearGradient id="d" gradientUnits="userSpaceOnUse" x1="256.0003" x2="256.0003" xlink:href="#b" y1="451.9660859688" y2="531.7738692808"/><linearGradient id="e" gradientUnits="userSpaceOnUse" x1="339.2037490848" x2="145.8531907104" xlink:href="#b" y1="407.381006419" y2="89.6265420408"/><linearGradient id="f" gradientUnits="userSpaceOnUse" x1="255.999296078" x2="255.999296078" y1="409.1921820992" y2="102.812153981"><stop offset="0" stop-color="#20b038"/><stop offset="1" stop-color="#60d66a"/></linearGradient><path d="m420.421875 503.234375c-109.503906 11.6875-219.339844 11.6875-328.84375 0-43.664063-4.660156-78.152344-39.148437-82.8125-82.816406-11.6875-109.503907-11.6875-219.335938 0-328.839844 4.660156-43.664063 39.148437-78.152344 82.8125-82.8125 109.503906-11.6875 219.335937-11.6875 328.839844 0 43.667969 4.660156 78.15625 39.148437 82.816406 82.8125 11.6875 109.503906 11.6875 219.335937 0 328.839844-4.660156 43.667969-39.144531 78.15625-82.8125 82.816406zm0 0" fill="url(#a)"/><path d="m475.386719 110.097656c-4.132813-38.746094-34.734375-69.351562-73.484375-73.488281-97.171875-10.367187-194.632813-10.367187-291.804688 0-38.746094 4.136719-69.351562 34.742187-73.488281 73.488281-10.367187 97.171875-10.367187 194.632813 0 291.800782 4.136719 38.75 34.742187 69.355468 73.488281 73.488281 97.171875 10.371093 194.632813 10.371093 291.800782 0 38.75-4.132813 69.355468-34.738281 73.488281-73.488281 10.371093-97.167969 10.371093-194.628907 0-291.800782zm0 0" fill="url(#c)"/><path d="m7.671875 409.804688c.351563 3.539062.714844 7.078124 1.09375 10.617187 4.660156 43.664063 39.148437 78.152344 82.816406 82.8125 109.503907 11.6875 219.335938 11.6875 328.839844 0 43.667969-4.660156 78.152344-39.148437 82.8125-82.8125.378906-3.539063.742187-7.078125 1.097656-10.617187zm0 0" fill="url(#d)"/><path d="m367.941406 143.4375c-29.703125-29.722656-68.195312-44.09375-110.277344-44.113281-86.710937 0-156.273437 69.539062-156.308593 156.25-.011719 27.71875 9.238281 53.769531 23.003906 77.617187l-26.335937 81.492188 96.078124 96.074218c75.453126 3.027344 150.960938.519532 226.320313-7.523437 43.667969-4.660156 78.152344-39.148437 82.8125-82.816406 4.738281-44.371094 7.550781-88.800781 8.449219-133.238281zm0 0" fill="url(#e)" fill-rule="evenodd"/><path d="m103.496094 409.191406 21.546875-78.671875c-13.292969-23.023437-20.28125-49.144531-20.273438-75.898437.035157-83.707032 68.160157-151.808594 151.867188-151.808594 40.625.019531 78.757812 15.828125 107.425781 44.523438 28.675781 28.699218 44.457031 66.839843 44.441406 107.40625-.035156 83.707031-68.167968 151.816406-151.863281 151.816406-.003906 0 .003906 0 0 0h-.066406c-25.414063-.007813-50.386719-6.386719-72.570313-18.476563zm0 0" fill="url(#f)"/><g fill="#fff" fill-rule="evenodd"><path d="m367.941406 143.4375c-29.703125-29.722656-69.199218-46.101562-111.28125-46.121094-86.710937 0-157.277344 70.542969-157.3125 157.253906-.011718 27.71875 7.230469 54.773438 20.996094 78.621094l-22.320312 81.492188 83.394531-21.867188c22.980469 12.53125 48.847656 19.132813 75.175781 19.144532h.066406c86.699219 0 157.277344-70.558594 157.3125-157.265626.015625-42.019531-16.332031-81.53125-46.03125-111.257812zm-111.28125 241.964844h-.050781c-23.464844-.015625-46.476563-6.316406-66.546875-18.226563l-4.777344-2.832031-49.488281 12.976562 13.210937-48.234374-3.113281-4.945313c-13.089843-20.8125-20-44.863281-19.988281-69.558594.027344-72.070312 58.679688-130.703125 130.804688-130.703125 34.925781.011719 67.75 13.628906 92.441406 38.332032 24.6875 24.707031 38.269531 57.546874 38.261718 92.476562-.03125 72.070312-58.6875 130.714844-130.753906 130.714844zm0 0"/><path d="m328.378906 287.503906c-3.929687-1.964844-23.253906-11.476562-26.859375-12.789062-3.601562-1.308594-6.222656-1.964844-8.84375 1.972656-2.621093 3.929688-10.152343 12.78125-12.445312 15.402344-2.292969 2.625-4.585938 2.953125-8.515625.988281-3.929688-1.972656-16.589844-6.117187-31.609375-19.507813-11.683594-10.417968-19.574219-23.285156-21.867188-27.21875-2.292969-3.933593-.246093-6.0625 1.726563-8.023437 1.761718-1.757813 3.929687-4.585937 5.894531-6.882813 1.960937-2.292968 2.617187-3.933593 3.929687-6.554687 1.308594-2.625.652344-4.917969-.328124-6.882813-.984376-1.96875-8.621094-21.40625-12.117188-29.179687-2.945312-6.542969-6.046875-6.675781-8.847656-6.789063-2.289063-.097656-4.914063-.09375-7.53125-.09375-2.621094 0-6.878906.984376-10.480469 4.917969-3.605469 3.933594-13.761719 13.441407-13.761719 32.78125 0 19.339844 14.089844 38.027344 16.050782 40.652344 1.96875 2.621094 27.195312 43.574219 67.148437 59.332031 33.203125 13.09375 39.960937 10.488282 47.167969 9.832032 7.207031-.65625 23.253906-9.503907 26.53125-18.683594 3.273437-9.175782 3.273437-17.042969 2.292968-18.6875-.984374-1.636719-3.605468-2.621094-7.535156-4.585938zm0 0"/></g></svg>